<svg width="20" height="20" viewBox="0 0 20 20" fill="none" xmlns="http://www.w3.org/2000/svg">
<path fill-rule="evenodd" clip-rule="evenodd" d="M9.99996 3.33335C6.31806 3.33335 3.33329 6.31812 3.33329 10C3.33329 13.6819 6.31806 16.6667 9.99996 16.6667C13.6819 16.6667 16.6666 13.6819 16.6666 10C16.6666 6.31812 13.6819 3.33335 9.99996 3.33335ZM1.66663 10C1.66663 5.39765 5.39759 1.66669 9.99996 1.66669C14.6023 1.66669 18.3333 5.39765 18.3333 10C18.3333 14.6024 14.6023 18.3334 9.99996 18.3334C5.39759 18.3334 1.66663 14.6024 1.66663 10ZM9.99996 6.66669C10.4602 6.66669 10.8333 7.03978 10.8333 7.50002V9.16669H12.5C12.9602 9.16669 13.3333 9.53978 13.3333 10C13.3333 10.4603 12.9602 10.8334 12.5 10.8334H10.8333V12.5C10.8333 12.9603 10.4602 13.3334 9.99996 13.3334C9.53972 13.3334 9.16663 12.9603 9.16663 12.5V10.8334H7.49996C7.03972 10.8334 6.66663 10.4603 6.66663 10C6.66663 9.53978 7.03972 9.16669 7.49996 9.16669H9.16663V7.50002C9.16663 7.03978 9.53972 6.66669 9.99996 6.66669Z" fill="#94A3B8"/>
</svg>
