<svg width="20" height="20" viewBox="0 0 20 20" fill="none" xmlns="http://www.w3.org/2000/svg">
<path fill-rule="evenodd" clip-rule="evenodd" d="M10 3.33335C6.31812 3.33335 3.33335 6.31812 3.33335 10C3.33335 13.6819 6.31812 16.6667 10 16.6667C13.6819 16.6667 16.6667 13.6819 16.6667 10C16.6667 6.31812 13.6819 3.33335 10 3.33335ZM1.66669 10C1.66669 5.39765 5.39765 1.66669 10 1.66669C14.6024 1.66669 18.3334 5.39765 18.3334 10C18.3334 14.6024 14.6024 18.3334 10 18.3334C5.39765 18.3334 1.66669 14.6024 1.66669 10ZM10 6.66669C10.4603 6.66669 10.8334 7.03978 10.8334 7.50002V9.16669H12.5C12.9603 9.16669 13.3334 9.53978 13.3334 10C13.3334 10.4603 12.9603 10.8334 12.5 10.8334H10.8334V12.5C10.8334 12.9603 10.4603 13.3334 10 13.3334C9.53978 13.3334 9.16669 12.9603 9.16669 12.5V10.8334H7.50002C7.03978 10.8334 6.66669 10.4603 6.66669 10C6.66669 9.53978 7.03978 9.16669 7.50002 9.16669H9.16669V7.50002C9.16669 7.03978 9.53978 6.66669 10 6.66669Z" fill="#94A3B8"/>
</svg>
