<svg width="20" height="20" viewBox="0 0 20 20" fill="none" xmlns="http://www.w3.org/2000/svg">
<path fill-rule="evenodd" clip-rule="evenodd" d="M10 3.33329C6.31811 3.33329 3.33334 6.31806 3.33334 9.99996C3.33334 13.6819 6.31811 16.6666 10 16.6666C13.6819 16.6666 16.6667 13.6819 16.6667 9.99996C16.6667 6.31806 13.6819 3.33329 10 3.33329ZM1.66667 9.99996C1.66667 5.39759 5.39763 1.66663 10 1.66663C14.6024 1.66663 18.3333 5.39759 18.3333 9.99996C18.3333 14.6023 14.6024 18.3333 10 18.3333C5.39763 18.3333 1.66667 14.6023 1.66667 9.99996ZM10 6.66663C10.4602 6.66663 10.8333 7.03972 10.8333 7.49996V9.16663H12.5C12.9602 9.16663 13.3333 9.53972 13.3333 9.99996C13.3333 10.4602 12.9602 10.8333 12.5 10.8333H10.8333V12.5C10.8333 12.9602 10.4602 13.3333 10 13.3333C9.53977 13.3333 9.16667 12.9602 9.16667 12.5V10.8333H7.50001C7.03977 10.8333 6.66667 10.4602 6.66667 9.99996C6.66667 9.53972 7.03977 9.16663 7.50001 9.16663H9.16667V7.49996C9.16667 7.03972 9.53977 6.66663 10 6.66663Z" fill="white"/>
</svg>
