<svg width="20" height="20" viewBox="0 0 20 20" fill="none" xmlns="http://www.w3.org/2000/svg">
<path fill-rule="evenodd" clip-rule="evenodd" d="M10 3.33329C6.31812 3.33329 3.33335 6.31806 3.33335 9.99996C3.33335 13.6819 6.31812 16.6666 10 16.6666C13.6819 16.6666 16.6667 13.6819 16.6667 9.99996C16.6667 6.31806 13.6819 3.33329 10 3.33329ZM1.66669 9.99996C1.66669 5.39759 5.39765 1.66663 10 1.66663C14.6024 1.66663 18.3334 5.39759 18.3334 9.99996C18.3334 14.6023 14.6024 18.3333 10 18.3333C5.39765 18.3333 1.66669 14.6023 1.66669 9.99996ZM10 6.66663C10.4603 6.66663 10.8334 7.03972 10.8334 7.49996V9.16663H12.5C12.9603 9.16663 13.3334 9.53972 13.3334 9.99996C13.3334 10.4602 12.9603 10.8333 12.5 10.8333H10.8334V12.5C10.8334 12.9602 10.4603 13.3333 10 13.3333C9.53978 13.3333 9.16669 12.9602 9.16669 12.5V10.8333H7.50002C7.03978 10.8333 6.66669 10.4602 6.66669 9.99996C6.66669 9.53972 7.03978 9.16663 7.50002 9.16663H9.16669V7.49996C9.16669 7.03972 9.53978 6.66663 10 6.66663Z" fill="#0F172A"/>
</svg>
