<svg width="20" height="20" viewBox="0 0 20 20" fill="none" xmlns="http://www.w3.org/2000/svg">
<path fill-rule="evenodd" clip-rule="evenodd" d="M10 3.33335C6.31811 3.33335 3.33334 6.31812 3.33334 10C3.33334 13.6819 6.31811 16.6667 10 16.6667C13.6819 16.6667 16.6667 13.6819 16.6667 10C16.6667 6.31812 13.6819 3.33335 10 3.33335ZM1.66667 10C1.66667 5.39765 5.39763 1.66669 10 1.66669C14.6024 1.66669 18.3333 5.39765 18.3333 10C18.3333 14.6024 14.6024 18.3334 10 18.3334C5.39763 18.3334 1.66667 14.6024 1.66667 10ZM10 6.66669C10.4602 6.66669 10.8333 7.03978 10.8333 7.50002V9.16669H12.5C12.9602 9.16669 13.3333 9.53978 13.3333 10C13.3333 10.4603 12.9602 10.8334 12.5 10.8334H10.8333V12.5C10.8333 12.9603 10.4602 13.3334 10 13.3334C9.53977 13.3334 9.16667 12.9603 9.16667 12.5V10.8334H7.50001C7.03977 10.8334 6.66667 10.4603 6.66667 10C6.66667 9.53978 7.03977 9.16669 7.50001 9.16669H9.16667V7.50002C9.16667 7.03978 9.53977 6.66669 10 6.66669Z" fill="#94A3B8"/>
</svg>
