<svg width="20" height="20" viewBox="0 0 20 20" fill="none" xmlns="http://www.w3.org/2000/svg">
<path fill-rule="evenodd" clip-rule="evenodd" d="M9.41058 1.9107C9.73602 1.58527 10.2637 1.58527 10.5891 1.9107L18.0891 9.4107C18.4145 9.73614 18.4145 10.2638 18.0891 10.5892C17.7637 10.9147 17.236 10.9147 16.9106 10.5892L16.6665 10.3451V16.6666C16.6665 17.5871 15.9203 18.3333 14.9998 18.3333H4.99984C4.07936 18.3333 3.33317 17.5871 3.33317 16.6666V10.3451L3.08909 10.5892C2.76366 10.9147 2.23602 10.9147 1.91058 10.5892C1.58514 10.2638 1.58514 9.73614 1.91058 9.4107L9.41058 1.9107ZM4.99984 8.67847V16.6666H7.49984V13.3333C7.49984 12.4128 8.24603 11.6666 9.1665 11.6666H10.8332C11.7536 11.6666 12.4998 12.4128 12.4998 13.3333V16.6666H14.9998V8.67847L9.99984 3.67847L4.99984 8.67847ZM10.8332 16.6666V13.3333H9.1665V16.6666H10.8332Z" fill="#94A3B8"/>
</svg>
