<svg width="24" height="16" viewBox="0 0 24 16" fill="none" xmlns="http://www.w3.org/2000/svg">
<g clip-path="url(#clip0_2434_10856)">
<rect width="24" height="16" rx="1" fill="#CBD5E1"/>
<path d="M11.0296 9.91532C11.0296 9.28808 11.1057 8.78853 11.2581 8.41667C11.4104 8.0448 11.6882 7.67966 12.0914 7.32124C12.4991 6.95833 12.7702 6.66487 12.9046 6.44086C13.039 6.21237 13.1062 5.97267 13.1062 5.72177C13.1062 4.96461 12.7567 4.58602 12.0578 4.58602C11.7263 4.58602 11.4597 4.68907 11.2581 4.89516C11.0609 5.09677 10.9579 5.37679 10.9489 5.73521H9C9.00896 4.87948 9.2845 4.20968 9.82661 3.72581C10.3732 3.24194 11.1169 3 12.0578 3C13.0076 3 13.7446 3.23073 14.2688 3.6922C14.793 4.14919 15.0551 4.79659 15.0551 5.63441C15.0551 6.01523 14.97 6.3759 14.7997 6.7164C14.6295 7.05242 14.3315 7.42652 13.9059 7.83871L13.3616 8.35618C13.0211 8.68324 12.8262 9.06631 12.7769 9.50538L12.75 9.91532H11.0296ZM10.8347 11.9785C10.8347 11.6783 10.9355 11.4319 11.1371 11.2392C11.3432 11.0421 11.6053 10.9435 11.9234 10.9435C12.2415 10.9435 12.5013 11.0421 12.703 11.2392C12.9091 11.4319 13.0121 11.6783 13.0121 11.9785C13.0121 12.2742 12.9113 12.5184 12.7097 12.711C12.5125 12.9037 12.2504 13 11.9234 13C11.5963 13 11.332 12.9037 11.1304 12.711C10.9332 12.5184 10.8347 12.2742 10.8347 11.9785Z" fill="#94A3B8"/>
</g>
<defs>
<clipPath id="clip0_2434_10856">
<rect width="24" height="16" rx="1" fill="white"/>
</clipPath>
</defs>
</svg>
