<svg width="20" height="20" viewBox="0 0 20 20" fill="none" xmlns="http://www.w3.org/2000/svg">
<path fill-rule="evenodd" clip-rule="evenodd" d="M1.91087 1.9107C2.2363 1.58527 2.76394 1.58527 3.08938 1.9107L5.62296 4.44428C6.92426 3.73579 8.41633 3.33329 10.0005 3.33329C14.1063 3.33329 17.5795 6.03201 18.7474 9.75028C18.7984 9.91284 18.7984 10.0871 18.7474 10.2497C18.2034 11.9815 17.1605 13.4904 15.7878 14.6091L18.0894 16.9107C18.4148 17.2361 18.4148 17.7638 18.0894 18.0892C17.7639 18.4147 17.2363 18.4147 16.9109 18.0892L1.91087 3.08922C1.58543 2.76378 1.58543 2.23614 1.91087 1.9107ZM6.86382 5.68515L8.30694 7.12827C8.80314 6.8352 9.3823 6.66663 10.0001 6.66663C11.8411 6.66663 13.3335 8.15901 13.3335 9.99996C13.3335 10.6178 13.1649 11.1969 12.8718 11.6931L14.6018 13.4231C15.7243 12.5498 16.5915 11.3649 17.074 9.99998C16.0442 7.08617 13.2649 4.99996 10.0005 4.99996C8.87969 4.99996 7.81764 5.24532 6.86382 5.68515ZM11.6105 10.4318C11.6472 10.2941 11.6668 10.1494 11.6668 9.99996C11.6668 9.07949 10.9206 8.33329 10.0001 8.33329C9.85067 8.33329 9.70594 8.35285 9.56829 8.38961L11.6105 10.4318ZM3.85419 6.81144C4.22118 7.08917 4.29355 7.61182 4.01582 7.97882C3.55532 8.58732 3.18581 9.26774 2.92702 9.99994C3.95678 12.9138 6.73605 15 10.0005 15C10.482 15 10.9522 14.9547 11.4073 14.8684C11.8594 14.7827 12.2955 15.0797 12.3813 15.5319C12.467 15.9841 12.17 16.4201 11.7178 16.5059C11.1609 16.6115 10.5867 16.6666 10.0005 16.6666C5.89473 16.6666 2.42145 13.9679 1.25362 10.2496C1.20257 10.0871 1.20257 9.91278 1.25363 9.75022C1.57188 8.73693 2.06104 7.79997 2.68682 6.97307C2.96454 6.60608 3.4872 6.53371 3.85419 6.81144Z" fill="#94A3B8"/>
</svg>
