<svg width="20" height="20" viewBox="0 0 20 20" fill="none" xmlns="http://www.w3.org/2000/svg">
<path fill-rule="evenodd" clip-rule="evenodd" d="M2.92702 10C3.95678 12.9138 6.73604 15 10.0005 15C13.2649 15 16.0442 12.9139 17.074 10.0001C16.0442 7.08625 13.2649 5.00004 10.0005 5.00004C6.73604 5.00004 3.95679 7.08623 2.92702 10ZM1.25363 9.7503C2.42147 6.03206 5.89473 3.33337 10.0005 3.33337C14.1063 3.33337 17.5795 6.03209 18.7474 9.75037C18.7984 9.91292 18.7984 10.0872 18.7474 10.2498C17.5795 13.968 14.1063 16.6667 10.0005 16.6667C5.89473 16.6667 2.42145 13.968 1.25362 10.2497C1.20257 10.0872 1.20257 9.91286 1.25363 9.7503ZM10.0001 8.33337C9.07965 8.33337 8.33346 9.07957 8.33346 10C8.33346 10.9205 9.07965 11.6667 10.0001 11.6667C10.9206 11.6667 11.6668 10.9205 11.6668 10C11.6668 9.07957 10.9206 8.33337 10.0001 8.33337ZM6.66679 10C6.66679 8.15909 8.15917 6.66671 10.0001 6.66671C11.8411 6.66671 13.3335 8.15909 13.3335 10C13.3335 11.841 11.8411 13.3334 10.0001 13.3334C8.15917 13.3334 6.66679 11.841 6.66679 10Z" fill="#94A3B8"/>
</svg>
