<svg width="24" height="16" viewBox="0 0 24 16" fill="none" xmlns="http://www.w3.org/2000/svg">
<g clip-path="url(#clip0_3162_138)">
<path d="M23.2258 0H12.3871L0.421875 8.55703V15.6693H23.2258L24 15.2V13.7143L23.4961 13.2191V11.8145L24 11.4286V9.14284L23.5469 8.69426V7.25726L24 6.85707V4.57139L23.5469 4.1573V2.89792L24 2.28572V0.799995C24 0.358148 23.6534 0 23.2258 0Z" fill="#E5646E"/>
<path d="M12.0156 2.28577H24V4.57149H12.0156V2.28577Z" fill="#F2F2F6"/>
<path d="M12 6.85706L12.3871 9.14278H24V6.85706H12Z" fill="#F2F2F6"/>
<path d="M0.774188 12.8V8.72656L0 9.14283V11.4286L0.328125 11.7176V13.2191L0 13.7143V15.2C0 15.6418 0.346641 16 0.774188 16H23.2258C23.6534 16 24 15.6418 24 15.2H3.0968C1.81406 15.2 0.774188 14.1255 0.774188 12.8Z" fill="#DB4655"/>
<path d="M12.3871 0H0.774188L0.28125 0.799995L0.774188 9.14284H12.3871V0Z" fill="#5055A0"/>
<path d="M0.774188 0C0.346641 0 0 0.358148 0 0.799995V9.14284H0.774188V0Z" fill="#3F3F8F"/>
<path d="M1.55218 1.78339C1.33819 1.78339 1.16321 1.60427 1.16321 1.3834C1.16321 1.16252 1.33444 0.983398 1.54843 0.983398H1.55222C1.76621 0.983398 1.93932 1.16252 1.93932 1.3834C1.93932 1.60427 1.76612 1.78339 1.55218 1.78339Z" fill="white"/>
<path d="M1.55218 4.98347C1.33819 4.98347 1.16321 4.80435 1.16321 4.58347C1.16321 4.36259 1.33444 4.18347 1.54843 4.18347H1.55222C1.76621 4.18347 1.93932 4.36259 1.93932 4.58347C1.93932 4.80435 1.76612 4.98347 1.55218 4.98347Z" fill="white"/>
<path d="M1.55218 8.18343C1.33819 8.18343 1.16321 8.00431 1.16321 7.78343C1.16321 7.56255 1.33444 7.38342 1.54843 7.38342H1.55222C1.76621 7.38342 1.93932 7.56255 1.93932 7.78343C1.93932 8.00431 1.76612 8.18343 1.55218 8.18343Z" fill="white"/>
<path d="M1.55218 3.38337C1.33819 3.38337 1.16321 3.20425 1.16321 2.98337C1.16321 2.7625 1.33444 2.58337 1.54843 2.58337H1.55222C1.76621 2.58337 1.93932 2.7625 1.93932 2.98337C1.93927 3.20425 1.76612 3.38337 1.55218 3.38337Z" fill="#F2F2F6"/>
<path d="M1.55218 6.58332C1.33819 6.58332 1.16321 6.4042 1.16321 6.18332C1.16321 5.96245 1.33444 5.78333 1.54843 5.78333H1.55222C1.76621 5.78333 1.93932 5.96245 1.93932 6.18332C1.93932 6.4042 1.76612 6.58332 1.55218 6.58332Z" fill="#F2F2F6"/>
<path d="M10.8425 1.78339C10.6285 1.78339 10.4535 1.60427 10.4535 1.3834C10.4535 1.16252 10.6247 0.983398 10.8387 0.983398H10.8425C11.0565 0.983398 11.2296 1.16252 11.2296 1.3834C11.2296 1.60427 11.0564 1.78339 10.8425 1.78339Z" fill="white"/>
<path d="M10.8425 4.98347C10.6285 4.98347 10.4535 4.80435 10.4535 4.58347C10.4535 4.36259 10.6247 4.18347 10.8387 4.18347H10.8425C11.0565 4.18347 11.2296 4.36259 11.2296 4.58347C11.2296 4.80435 11.0564 4.98347 10.8425 4.98347Z" fill="white"/>
<path d="M10.8425 8.18343C10.6285 8.18343 10.4535 8.00431 10.4535 7.78343C10.4535 7.56255 10.6247 7.38342 10.8387 7.38342H10.8425C11.0565 7.38342 11.2296 7.56255 11.2296 7.78343C11.2296 8.00431 11.0564 8.18343 10.8425 8.18343Z" fill="white"/>
<path d="M10.8423 3.38337C10.6284 3.38337 10.4534 3.20425 10.4534 2.98337C10.4534 2.7625 10.6246 2.58337 10.8386 2.58337H10.8424C11.0564 2.58337 11.2295 2.7625 11.2295 2.98337C11.2295 3.20425 11.0563 3.38337 10.8423 3.38337Z" fill="#F2F2F6"/>
<path d="M10.8423 6.58332C10.6284 6.58332 10.4534 6.4042 10.4534 6.18332C10.4534 5.96245 10.6246 5.78333 10.8386 5.78333H10.8424C11.0564 5.78333 11.2295 5.96245 11.2295 6.18332C11.2295 6.4042 11.0563 6.58332 10.8423 6.58332Z" fill="#F2F2F6"/>
<path d="M3.87469 1.78339C3.6607 1.78339 3.48572 1.60427 3.48572 1.3834C3.48572 1.16252 3.65695 0.983398 3.87094 0.983398H3.87473C4.08872 0.983398 4.26183 1.16252 4.26183 1.3834C4.26183 1.60427 4.08867 1.78339 3.87469 1.78339Z" fill="#F2F2F6"/>
<path d="M3.87469 4.98347C3.6607 4.98347 3.48572 4.80435 3.48572 4.58347C3.48572 4.36259 3.65695 4.18347 3.87094 4.18347H3.87473C4.08872 4.18347 4.26183 4.36259 4.26183 4.58347C4.26183 4.80435 4.08867 4.98347 3.87469 4.98347Z" fill="#F2F2F6"/>
<path d="M3.87469 8.18343C3.6607 8.18343 3.48572 8.00431 3.48572 7.78343C3.48572 7.56255 3.65695 7.38342 3.87094 7.38342H3.87473C4.08872 7.38342 4.26183 7.56255 4.26183 7.78343C4.26183 8.00431 4.08867 8.18343 3.87469 8.18343Z" fill="#F2F2F6"/>
<path d="M3.87469 3.38337C3.6607 3.38337 3.48572 3.20425 3.48572 2.98337C3.48572 2.7625 3.65695 2.58337 3.87094 2.58337H3.87473C4.08872 2.58337 4.26183 2.7625 4.26183 2.98337C4.26178 3.20425 4.08867 3.38337 3.87469 3.38337Z" fill="white"/>
<path d="M3.87469 6.58332C3.6607 6.58332 3.48572 6.4042 3.48572 6.18332C3.48572 5.96245 3.65695 5.78333 3.87094 5.78333H3.87473C4.08872 5.78333 4.26183 5.96245 4.26183 6.18332C4.26183 6.4042 4.08867 6.58332 3.87469 6.58332Z" fill="white"/>
<path d="M2.71343 2.58332C2.49945 2.58332 2.32446 2.4042 2.32446 2.18332C2.32446 1.96245 2.4957 1.78333 2.70968 1.78333H2.71348C2.92746 1.78333 3.10057 1.96245 3.10057 2.18332C3.10052 2.40425 2.92741 2.58332 2.71343 2.58332Z" fill="white"/>
<path d="M2.71343 5.78339C2.49945 5.78339 2.32446 5.60427 2.32446 5.3834C2.32446 5.16252 2.4957 4.9834 2.70968 4.9834H2.71348C2.92746 4.9834 3.10057 5.16252 3.10057 5.3834C3.10057 5.60427 2.92741 5.78339 2.71343 5.78339Z" fill="white"/>
<path d="M2.71343 4.18342C2.49945 4.18342 2.32446 4.0043 2.32446 3.78342C2.32446 3.56254 2.4957 3.38342 2.70968 3.38342H2.71348C2.92746 3.38342 3.10057 3.56254 3.10057 3.78342C3.10057 4.0043 2.92741 4.18342 2.71343 4.18342Z" fill="#F2F2F6"/>
<path d="M2.71343 7.38337C2.49945 7.38337 2.32446 7.20425 2.32446 6.98337C2.32446 6.7625 2.4957 6.58337 2.70968 6.58337H2.71348C2.92746 6.58337 3.10057 6.7625 3.10057 6.98337C3.10057 7.20425 2.92741 7.38337 2.71343 7.38337Z" fill="#F2F2F6"/>
<path d="M6.19732 1.78339C5.98333 1.78339 5.80835 1.60427 5.80835 1.3834C5.80835 1.16252 5.97958 0.983398 6.19357 0.983398H6.19736C6.41135 0.983398 6.58446 1.16252 6.58446 1.3834C6.58446 1.60427 6.41126 1.78339 6.19732 1.78339Z" fill="white"/>
<path d="M6.19732 4.98347C5.98333 4.98347 5.80835 4.80435 5.80835 4.58347C5.80835 4.36259 5.97958 4.18347 6.19357 4.18347H6.19736C6.41135 4.18347 6.58446 4.36259 6.58446 4.58347C6.58446 4.80435 6.41126 4.98347 6.19732 4.98347Z" fill="white"/>
<path d="M6.19732 8.18343C5.98333 8.18343 5.80835 8.00431 5.80835 7.78343C5.80835 7.56255 5.97958 7.38342 6.19357 7.38342H6.19736C6.41135 7.38342 6.58446 7.56255 6.58446 7.78343C6.58446 8.00431 6.41126 8.18343 6.19732 8.18343Z" fill="white"/>
<path d="M6.19732 3.38337C5.98333 3.38337 5.80835 3.20425 5.80835 2.98337C5.80835 2.7625 5.97958 2.58337 6.19357 2.58337H6.19736C6.41135 2.58337 6.58446 2.7625 6.58446 2.98337C6.58441 3.20425 6.41126 3.38337 6.19732 3.38337Z" fill="#F2F2F6"/>
<path d="M6.19732 6.58332C5.98333 6.58332 5.80835 6.4042 5.80835 6.18332C5.80835 5.96245 5.97958 5.78333 6.19357 5.78333H6.19736C6.41135 5.78333 6.58446 5.96245 6.58446 6.18332C6.58446 6.4042 6.41126 6.58332 6.19732 6.58332Z" fill="#F2F2F6"/>
<path d="M5.03606 2.58332C4.82208 2.58332 4.64709 2.4042 4.64709 2.18332C4.64709 1.96245 4.81833 1.78333 5.03231 1.78333H5.03611C5.25009 1.78333 5.4232 1.96245 5.4232 2.18332C5.4232 2.40425 5.25005 2.58332 5.03606 2.58332Z" fill="#F2F2F6"/>
<path d="M5.03606 5.78339C4.82208 5.78339 4.64709 5.60427 4.64709 5.3834C4.64709 5.16252 4.81833 4.9834 5.03231 4.9834H5.03611C5.25009 4.9834 5.4232 5.16252 5.4232 5.3834C5.4232 5.60427 5.25005 5.78339 5.03606 5.78339Z" fill="#F2F2F6"/>
<path d="M5.03606 4.18342C4.82208 4.18342 4.64709 4.0043 4.64709 3.78342C4.64709 3.56254 4.81833 3.38342 5.03231 3.38342H5.03611C5.25009 3.38342 5.4232 3.56254 5.4232 3.78342C5.4232 4.0043 5.25005 4.18342 5.03606 4.18342Z" fill="white"/>
<path d="M5.03606 7.38337C4.82208 7.38337 4.64709 7.20425 4.64709 6.98337C4.64709 6.7625 4.81833 6.58337 5.03231 6.58337H5.03611C5.25009 6.58337 5.4232 6.7625 5.4232 6.98337C5.4232 7.20425 5.25005 7.38337 5.03606 7.38337Z" fill="white"/>
<path d="M8.51604 1.78339C8.30206 1.78339 8.12708 1.60427 8.12708 1.3834C8.12708 1.16252 8.29831 0.983398 8.51229 0.983398H8.51609C8.73008 0.983398 8.90318 1.16252 8.90318 1.3834C8.90318 1.60427 8.73003 1.78339 8.51604 1.78339Z" fill="#F2F2F6"/>
<path d="M8.51604 4.98347C8.30206 4.98347 8.12708 4.80435 8.12708 4.58347C8.12708 4.36259 8.29831 4.18347 8.51229 4.18347H8.51609C8.73008 4.18347 8.90318 4.36259 8.90318 4.58347C8.90318 4.80435 8.73003 4.98347 8.51604 4.98347Z" fill="#F2F2F6"/>
<path d="M8.51604 8.18343C8.30206 8.18343 8.12708 8.00431 8.12708 7.78343C8.12708 7.56255 8.29831 7.38342 8.51229 7.38342H8.51609C8.73008 7.38342 8.90318 7.56255 8.90318 7.78343C8.90318 8.00431 8.73003 8.18343 8.51604 8.18343Z" fill="#F2F2F6"/>
<path d="M8.51604 3.38337C8.30206 3.38337 8.12708 3.20425 8.12708 2.98337C8.12708 2.7625 8.29831 2.58337 8.51229 2.58337H8.51609C8.73008 2.58337 8.90318 2.7625 8.90318 2.98337C8.90314 3.20425 8.73003 3.38337 8.51604 3.38337Z" fill="white"/>
<path d="M8.51604 6.58332C8.30206 6.58332 8.12708 6.4042 8.12708 6.18332C8.12708 5.96245 8.29831 5.78333 8.51229 5.78333H8.51609C8.73008 5.78333 8.90318 5.96245 8.90318 6.18332C8.90318 6.4042 8.73003 6.58332 8.51604 6.58332Z" fill="white"/>
<path d="M7.35479 2.58332C7.1408 2.58332 6.96582 2.4042 6.96582 2.18332C6.96582 1.96245 7.13705 1.78333 7.35104 1.78333H7.35484C7.56882 1.78333 7.74193 1.96245 7.74193 2.18332C7.74188 2.40425 7.56877 2.58332 7.35479 2.58332Z" fill="white"/>
<path d="M7.35479 5.78339C7.1408 5.78339 6.96582 5.60427 6.96582 5.3834C6.96582 5.16252 7.13705 4.9834 7.35104 4.9834H7.35484C7.56882 4.9834 7.74193 5.16252 7.74193 5.3834C7.74193 5.60427 7.56877 5.78339 7.35479 5.78339Z" fill="white"/>
<path d="M7.35479 4.18342C7.1408 4.18342 6.96582 4.0043 6.96582 3.78342C6.96582 3.56254 7.13705 3.38342 7.35104 3.38342H7.35484C7.56882 3.38342 7.74193 3.56254 7.74193 3.78342C7.74193 4.0043 7.56877 4.18342 7.35479 4.18342Z" fill="#F2F2F6"/>
<path d="M7.35479 7.38337C7.1408 7.38337 6.96582 7.20425 6.96582 6.98337C6.96582 6.7625 7.13705 6.58337 7.35104 6.58337H7.35484C7.56882 6.58337 7.74193 6.7625 7.74193 6.98337C7.74193 7.20425 7.56877 7.38337 7.35479 7.38337Z" fill="#F2F2F6"/>
<path d="M9.68121 2.58332C9.46722 2.58332 9.29224 2.4042 9.29224 2.18332C9.29224 1.96245 9.46347 1.78333 9.67746 1.78333H9.68125C9.89524 1.78333 10.0683 1.96245 10.0683 2.18332C10.0683 2.40425 9.89519 2.58332 9.68121 2.58332Z" fill="#F2F2F6"/>
<path d="M9.68121 5.78339C9.46722 5.78339 9.29224 5.60427 9.29224 5.3834C9.29224 5.16252 9.46347 4.9834 9.67746 4.9834H9.68125C9.89524 4.9834 10.0683 5.16252 10.0683 5.3834C10.0683 5.60427 9.89519 5.78339 9.68121 5.78339Z" fill="#F2F2F6"/>
<path d="M9.68121 4.18342C9.46722 4.18342 9.29224 4.0043 9.29224 3.78342C9.29224 3.56254 9.46347 3.38342 9.67746 3.38342H9.68125C9.89524 3.38342 10.0683 3.56254 10.0683 3.78342C10.0683 4.0043 9.89519 4.18342 9.68121 4.18342Z" fill="white"/>
<path d="M9.68121 7.38337C9.46722 7.38337 9.29224 7.20425 9.29224 6.98337C9.29224 6.7625 9.46347 6.58337 9.67746 6.58337H9.68125C9.89524 6.58337 10.0683 6.7625 10.0683 6.98337C10.0683 7.20425 9.89519 7.38337 9.68121 7.38337Z" fill="white"/>
<path d="M0.140625 13.0537L0.949687 13.7143H24V11.4286H0.774188L0.140625 13.0537Z" fill="#F2F2F6"/>
<path d="M0 11.4286V13.7144H0.949687C0.837141 13.4325 0.774234 13.124 0.774234 12.8001V11.4286H0L0 11.4286Z" fill="#E1E1E6"/>
</g>
<defs>
<clipPath id="clip0_3162_138">
<rect width="24" height="16" rx="1" fill="white"/>
</clipPath>
</defs>
</svg>
