<svg width="16" height="16" viewBox="0 0 16 16" fill="none" xmlns="http://www.w3.org/2000/svg">
<g opacity="0.6">
<path fill-rule="evenodd" clip-rule="evenodd" d="M3.43451 3.43433C3.74693 3.12191 4.25346 3.12191 4.56588 3.43433L8.0002 6.86864L11.4345 3.43433C11.7469 3.12191 12.2535 3.12191 12.5659 3.43433C12.8783 3.74675 12.8783 4.25328 12.5659 4.5657L9.13157 8.00001L12.5659 11.4343C12.8783 11.7467 12.8783 12.2533 12.5659 12.5657C12.2535 12.8781 11.7469 12.8781 11.4345 12.5657L8.0002 9.13138L4.56588 12.5657C4.25346 12.8781 3.74693 12.8781 3.43451 12.5657C3.12209 12.2533 3.12209 11.7467 3.43451 11.4343L6.86882 8.00001L3.43451 4.5657C3.12209 4.25328 3.12209 3.74675 3.43451 3.43433Z" fill="#334155"/>
</g>
</svg>
